<?xml version="1.0" encoding="iso-8859-1"?>
<!-- Generator: Adobe Illustrator 19.0.0, SVG Export Plug-In . SVG Version: 6.00 Build 0)  -->
<svg version="1.1" id="Layer_1" xmlns="http://www.w3.org/2000/svg" xmlns:xlink="http://www.w3.org/1999/xlink" x="0px" y="0px"
	 viewBox="0 0 511.999 511.999" style="enable-background:new 0 0 511.999 511.999;" xml:space="preserve">
<g>
	<g>
		<g>
			<circle cx="329.137" cy="338.593" r="16.622"/>
			<path d="M482.919,33.701H29.082C13.046,33.701,0,46.748,0,62.783s13.046,29.082,29.082,29.082h197.101v29.472h-91.331
				c-29.974,0-54.36,24.386-54.36,54.359c0,10.486,2.992,20.282,8.156,28.595c-27.831,2.343-49.767,25.728-49.767,54.153
				c0,20.986,11.961,39.22,29.417,48.276c-7.86,9.591-12.388,21.734-12.388,34.47c0,28.191,21.573,51.434,49.077,54.101
				c-5.245,8.456-8.183,18.326-8.183,28.647c0,29.974,24.386,54.36,54.36,54.36H360.84c29.974,0,54.36-24.386,54.36-54.36
				c0-10.373-2.892-20.214-8.127-28.652c27.477-2.692,49.021-25.922,49.021-54.095c0-12.711-4.534-24.868-12.392-34.468
				c17.457-9.056,29.421-27.291,29.421-48.278c0-28.425-21.935-51.81-49.764-54.152c5.165-8.313,8.156-18.109,8.156-28.595
				c0-29.974-24.386-54.359-54.36-54.359h-91.332V91.864h197.094c16.036,0,29.082-13.046,29.082-29.082
				C511.999,46.745,498.954,33.701,482.919,33.701z M360.843,458.817H151.165c-19.234,0-34.88-15.647-34.88-34.88
				c0-11.359,5.516-21.882,14.624-28.386h250.199c9.194,6.549,14.614,16.978,14.614,28.386
				C395.722,443.17,380.075,458.817,360.843,458.817z M401.737,376.069H110.271c-19.234,0-34.88-15.647-34.88-34.88
				c0-11.351,5.594-21.977,14.769-28.478c1.021,0.057,2.047,0.092,3.082,0.092h325.523c1.036,0,2.065-0.035,3.087-0.094
				c9.168,6.5,14.764,17.153,14.764,28.478C436.616,360.423,420.971,376.069,401.737,376.069z M418.765,223.564
				c19.234,0,34.88,15.647,34.88,34.88s-15.647,34.88-34.88,34.88H93.242c-19.233,0-34.88-15.647-34.88-34.88
				c0-19.233,15.647-34.88,34.88-34.88h15.869c7.666,4.139,16.433,6.494,25.739,6.494h242.306c9.307,0,18.073-2.355,25.739-6.494
				H418.765z M377.157,140.818c19.234,0,34.88,15.647,34.88,34.878c0,19.233-15.647,34.88-34.88,34.88H134.851
				c-19.234,0-34.88-15.647-34.88-34.88s15.647-34.878,34.88-34.878H377.157z M245.662,121.336V91.864h20.682v29.472H245.662z
				 M482.919,72.383H29.082c-5.294,0-9.601-4.307-9.601-9.601s4.307-9.601,9.601-9.601h453.837c5.294,0,9.601,4.307,9.601,9.601
				S488.213,72.383,482.919,72.383z"/>
		</g>
	</g>
</g>
<g>
</g>
<g>
</g>
<g>
</g>
<g>
</g>
<g>
</g>
<g>
</g>
<g>
</g>
<g>
</g>
<g>
</g>
<g>
</g>
<g>
</g>
<g>
</g>
<g>
</g>
<g>
</g>
<g>
</g>
</svg>
